<?xml version="1.0" encoding="utf-8"?>
<!-- Generator: Adobe Illustrator 16.0.3, SVG Export Plug-In . SVG Version: 6.00 Build 0)  -->
<!DOCTYPE svg PUBLIC "-//W3C//DTD SVG 1.1 Basic//EN" "http://www.w3.org/Graphics/SVG/1.1/DTD/svg11-basic.dtd">
<svg version="1.1" baseProfile="basic" xmlns="http://www.w3.org/2000/svg" xmlns:xlink="http://www.w3.org/1999/xlink" x="0px"
	 y="0px" width="30px" height="30px" viewBox="0 0 30 30" xml:space="preserve">
<g id="Layer_1">
</g>
<g id="Layer_2">
</g>
<g id="pictures">
	<g>
		<circle fill="#FFFFFF" cx="15" cy="15" r="12.186"/>
		<path id="facebook-circle-icon_4_" fill="#3B5998" d="M15,0.5C6.99,0.5,0.5,6.992,0.5,15S6.99,29.5,15,29.5
			c8.008,0,14.5-6.492,14.5-14.5S23.008,0.5,15,0.5z M19.291,9.03c0,0-1.451,0-2.025,0c-0.717,0-0.865,0.293-0.865,1.033
			c0,0.616,0,1.788,0,1.788h2.891l-0.279,3.14H16.4v9.377h-3.744V15.03h-1.947v-3.179h1.947c0,0,0-0.456,0-2.503
			c0-2.349,1.256-3.576,4.043-3.576c0.455,0,2.592,0,2.592,0V9.03L19.291,9.03z"/>
		<path id="facebook-circle-icon_3_" d="M15,0.5C6.99,0.5,0.5,6.992,0.5,15S6.99,29.5,15,29.5c8.008,0,14.5-6.492,14.5-14.5
			S23.008,0.5,15,0.5z M19.291,9.03c0,0-1.451,0-2.025,0c-0.717,0-0.865,0.293-0.865,1.033c0,0.616,0,1.788,0,1.788h2.891
			l-0.279,3.14H16.4v9.377h-3.744V15.03h-1.947v-3.179h1.947c0,0,0-0.456,0-2.503c0-2.349,1.256-3.576,4.043-3.576
			c0.455,0,2.592,0,2.592,0V9.03L19.291,9.03z"/>
	</g>
</g>
</svg>
