<?xml version="1.0" encoding="utf-8"?>
<!-- Generator: Adobe Illustrator 16.0.3, SVG Export Plug-In . SVG Version: 6.00 Build 0)  -->
<!DOCTYPE svg PUBLIC "-//W3C//DTD SVG 1.1 Basic//EN" "http://www.w3.org/Graphics/SVG/1.1/DTD/svg11-basic.dtd">
<svg version="1.1" baseProfile="basic" xmlns="http://www.w3.org/2000/svg" xmlns:xlink="http://www.w3.org/1999/xlink" x="0px"
	 y="0px" width="30px" height="30px" viewBox="0 0 30 30" xml:space="preserve">
<g id="Layer_1">
</g>
<g id="Layer_2">
</g>
<g id="pictures">
	<g>
		<circle fill="#FFFFFF" cx="15" cy="15" r="12.186"/>
		<path id="pinterest-circle-icon_4_" fill="#CB2128" d="M15,0.6C7.047,0.6,0.6,7.047,0.6,15S7.047,29.4,15,29.4
			S29.4,22.953,29.4,15S22.953,0.6,15,0.6z M16.889,19.74c-1.125,0-2.184-0.608-2.545-1.299c0,0-0.605,2.4-0.734,2.864
			c-0.451,1.638-1.777,3.276-1.881,3.41c-0.072,0.094-0.23,0.064-0.248-0.06c-0.027-0.209-0.367-2.275,0.031-3.96
			c0.201-0.847,1.342-5.679,1.342-5.679s-0.334-0.666-0.334-1.649c0-1.545,0.896-2.698,2.012-2.698c0.947,0,1.404,0.712,1.404,1.565
			c0,0.952-0.605,2.378-0.92,3.698c-0.262,1.105,0.555,2.007,1.645,2.007c1.975,0,3.305-2.536,3.305-5.541
			c0-2.284-1.537-3.994-4.336-3.994c-3.16,0-5.131,2.358-5.131,4.991c0,0.908,0.268,1.549,0.688,2.045
			c0.191,0.228,0.219,0.318,0.15,0.58c-0.051,0.192-0.166,0.654-0.213,0.837c-0.07,0.264-0.283,0.358-0.523,0.261
			c-1.455-0.595-2.133-2.189-2.133-3.981c0-2.961,2.496-6.511,7.447-6.511c3.98,0,6.598,2.879,6.598,5.971
			C22.512,16.686,20.24,19.74,16.889,19.74z"/>
		<path id="pinterest-circle-icon_3_" d="M15,0.6C7.047,0.6,0.6,7.047,0.6,15S7.047,29.4,15,29.4S29.4,22.953,29.4,15
			S22.953,0.6,15,0.6z M16.889,19.74c-1.125,0-2.184-0.608-2.545-1.299c0,0-0.605,2.4-0.734,2.864
			c-0.451,1.638-1.777,3.276-1.881,3.41c-0.072,0.094-0.23,0.064-0.248-0.06c-0.027-0.209-0.367-2.275,0.031-3.96
			c0.201-0.847,1.342-5.679,1.342-5.679s-0.334-0.666-0.334-1.649c0-1.545,0.896-2.698,2.012-2.698c0.947,0,1.404,0.712,1.404,1.565
			c0,0.952-0.605,2.378-0.92,3.698c-0.262,1.105,0.555,2.007,1.645,2.007c1.975,0,3.305-2.536,3.305-5.541
			c0-2.284-1.537-3.994-4.336-3.994c-3.16,0-5.131,2.358-5.131,4.991c0,0.908,0.268,1.549,0.688,2.045
			c0.191,0.228,0.219,0.318,0.15,0.58c-0.051,0.192-0.166,0.654-0.213,0.837c-0.07,0.264-0.283,0.358-0.523,0.261
			c-1.455-0.595-2.133-2.189-2.133-3.981c0-2.961,2.496-6.511,7.447-6.511c3.98,0,6.598,2.879,6.598,5.971
			C22.512,16.686,20.24,19.74,16.889,19.74z"/>
	</g>
</g>
</svg>
