<?xml version="1.0" encoding="utf-8"?>
<!-- Generator: Adobe Illustrator 16.0.3, SVG Export Plug-In . SVG Version: 6.00 Build 0)  -->
<!DOCTYPE svg PUBLIC "-//W3C//DTD SVG 1.1 Basic//EN" "http://www.w3.org/Graphics/SVG/1.1/DTD/svg11-basic.dtd">
<svg version="1.1" baseProfile="basic" xmlns="http://www.w3.org/2000/svg" xmlns:xlink="http://www.w3.org/1999/xlink" x="0px"
	 y="0px" width="30px" height="30px" viewBox="0 0 30 30" xml:space="preserve">
<g id="Layer_1">
</g>
<g id="Layer_2">
</g>
<g id="pictures">
	<g>
		<circle fill="#FFFFFF" cx="15" cy="15" r="12.186"/>
		<path id="instagram-circle-icon_3_" fill="#3E739D" d="M21.844,8.713v1.771c0,0.283-0.23,0.514-0.514,0.514h-1.732
			c-0.283,0-0.514-0.23-0.514-0.514V8.713c0-0.283,0.23-0.514,0.514-0.514h1.732C21.613,8.199,21.844,8.43,21.844,8.713z
			 M15.209,17.434c1.305,0,2.359-1.057,2.359-2.359s-1.055-2.359-2.359-2.359c-1.303,0-2.359,1.057-2.359,2.359
			S13.906,17.434,15.209,17.434z M29.4,15c0,7.953-6.447,14.4-14.4,14.4S0.6,22.953,0.6,15S7.047,0.6,15,0.6S29.4,7.047,29.4,15z
			 M23.307,12.674h-4.73c0.482,0.678,0.768,1.506,0.768,2.4c0,2.288-1.855,4.144-4.145,4.144s-4.145-1.855-4.145-4.144
			c0-0.895,0.285-1.723,0.768-2.4H7.113v7.263c0,1.769,1.434,3.203,3.203,3.203h9.787c1.77,0,3.203-1.435,3.203-3.203V12.674z
			 M15.199,18.267c1.76,0,3.193-1.433,3.193-3.192c0-0.956-0.424-1.814-1.092-2.4c-0.234-0.205-0.498-0.376-0.785-0.507
			c-0.4-0.183-0.848-0.285-1.316-0.285s-0.914,0.103-1.316,0.285c-0.287,0.131-0.551,0.302-0.785,0.507
			c-0.668,0.586-1.09,1.444-1.09,2.4C12.008,16.834,13.439,18.267,15.199,18.267z M23.307,10.063c0-1.769-1.434-3.203-3.203-3.203
			h-8.752v4.038h-0.656V6.86h-0.379c-0.025,0-0.051,0.001-0.074,0.002v4.036H9.584V6.945C9.426,6.982,9.271,7.031,9.123,7.091v3.808
			H8.465V7.449c-0.818,0.58-1.352,1.534-1.352,2.614v2.104h5.135c0.75-0.763,1.795-1.237,2.951-1.237s2.201,0.475,2.953,1.237h5.154
			V10.063L23.307,10.063z"/>
	</g>
</g>
</svg>
