<?xml version="1.0" encoding="utf-8"?>
<!-- Generator: Adobe Illustrator 16.0.3, SVG Export Plug-In . SVG Version: 6.00 Build 0)  -->
<!DOCTYPE svg PUBLIC "-//W3C//DTD SVG 1.1 Basic//EN" "http://www.w3.org/Graphics/SVG/1.1/DTD/svg11-basic.dtd">
<svg version="1.1" baseProfile="basic" xmlns="http://www.w3.org/2000/svg" xmlns:xlink="http://www.w3.org/1999/xlink" x="0px"
	 y="0px" width="30px" height="30px" viewBox="0 0 30 30" xml:space="preserve">
<g id="Layer_1">
</g>
<g id="Layer_2">
</g>
<g id="pictures">
	<g>
		<circle fill="#FFFFFF" cx="15" cy="15" r="12.186"/>
		<path id="twitter-4-icon_3_" fill="#4DC8F1" d="M15,0.6C7.047,0.6,0.6,7.047,0.6,15S7.047,29.4,15,29.4S29.4,22.953,29.4,15
			S22.953,0.6,15,0.6z M22.242,12.519c0.211,4.698-3.293,9.936-9.494,9.936c-1.885,0-3.641-0.554-5.119-1.501
			c1.771,0.209,3.541-0.282,4.945-1.383c-1.461-0.027-2.695-0.992-3.119-2.319c0.521,0.1,1.037,0.07,1.508-0.058
			c-1.607-0.322-2.715-1.77-2.68-3.316c0.451,0.25,0.965,0.4,1.514,0.417c-1.488-0.993-1.908-2.958-1.033-4.459
			c1.646,2.021,4.107,3.351,6.883,3.49c-0.486-2.09,1.098-4.102,3.254-4.102c0.961,0,1.828,0.405,2.438,1.055
			c0.76-0.149,1.475-0.428,2.121-0.811c-0.25,0.78-0.779,1.435-1.469,1.848c0.676-0.08,1.318-0.26,1.918-0.525
			C23.461,11.46,22.895,12.048,22.242,12.519z"/>
	</g>
</g>
</svg>
